<?xml version="1.0" encoding="UTF-8" standalone="no"?>
<!-- Created with Inkscape (http://www.inkscape.org/) -->

<svg
   width="16"
   height="16"
   viewBox="0 0 4.2333333 4.2333333"
   version="1.1"
   id="svg5"
   xml:space="preserve"
   xmlns:xlink="http://www.w3.org/1999/xlink"
   xmlns="http://www.w3.org/2000/svg"
   xmlns:svg="http://www.w3.org/2000/svg"><defs
     id="defs2"><pattern
       xlink:href="#Polkadots-large"
       id="pattern3132"
       patternTransform="matrix(37.795276,0,0,37.795276,-25.638541,0.4014636)" /><pattern
       patternUnits="userSpaceOnUse"
       width="10"
       height="10"
       patternTransform="translate(0,0) scale(10,10)"
       id="Polkadots-large"><circle
         style="fill:black;stroke:none"
         cx="2.567"
         cy="0.810"
         r="0.45"
         id="circle2498" /><circle
         style="fill:black;stroke:none"
         cx="3.048"
         cy="2.33"
         r="0.45"
         id="circle2500" /><circle
         style="fill:black;stroke:none"
         cx="4.418"
         cy="2.415"
         r="0.45"
         id="circle2502" /><circle
         style="fill:black;stroke:none"
         cx="1.844"
         cy="3.029"
         r="0.45"
         id="circle2504" /><circle
         style="fill:black;stroke:none"
         cx="6.08"
         cy="1.363"
         r="0.45"
         id="circle2506" /><circle
         style="fill:black;stroke:none"
         cx="5.819"
         cy="4.413"
         r="0.45"
         id="circle2508" /><circle
         style="fill:black;stroke:none"
         cx="4.305"
         cy="4.048"
         r="0.45"
         id="circle2510" /><circle
         style="fill:black;stroke:none"
         cx="5.541"
         cy="3.045"
         r="0.45"
         id="circle2512" /><circle
         style="fill:black;stroke:none"
         cx="4.785"
         cy="5.527"
         r="0.45"
         id="circle2514" /><circle
         style="fill:black;stroke:none"
         cx="2.667"
         cy="5.184"
         r="0.45"
         id="circle2516" /><circle
         style="fill:black;stroke:none"
         cx="7.965"
         cy="1.448"
         r="0.45"
         id="circle2518" /><circle
         style="fill:black;stroke:none"
         cx="7.047"
         cy="5.049"
         r="0.45"
         id="circle2520" /><circle
         style="fill:black;stroke:none"
         cx="4.340"
         cy="0.895"
         r="0.45"
         id="circle2522" /><circle
         style="fill:black;stroke:none"
         cx="7.125"
         cy="0.340"
         r="0.45"
         id="circle2524" /><circle
         style="fill:black;stroke:none"
         cx="7.125"
         cy="10.340"
         r="0.45"
         id="circle2526" /><circle
         style="fill:black;stroke:none"
         cx="9.550"
         cy="1.049"
         r="0.45"
         id="circle2528" /><circle
         style="fill:black;stroke:none"
         cx="7.006"
         cy="2.689"
         r="0.45"
         id="circle2530" /><circle
         style="fill:black;stroke:none"
         cx="8.909"
         cy="2.689"
         r="0.45"
         id="circle2532" /><circle
         style="fill:black;stroke:none"
         cx="9.315"
         cy="4.407"
         r="0.45"
         id="circle2534" /><circle
         style="fill:black;stroke:none"
         cx="7.820"
         cy="3.870"
         r="0.45"
         id="circle2536" /><circle
         style="fill:black;stroke:none"
         cx="8.270"
         cy="5.948"
         r="0.45"
         id="circle2538" /><circle
         style="fill:black;stroke:none"
         cx="7.973"
         cy="7.428"
         r="0.45"
         id="circle2540" /><circle
         style="fill:black;stroke:none"
         cx="9.342"
         cy="8.072"
         r="0.45"
         id="circle2542" /><circle
         style="fill:black;stroke:none"
         cx="8.206"
         cy="9.315"
         r="0.45"
         id="circle2544" /><circle
         style="fill:black;stroke:none"
         cx="9.682"
         cy="9.475"
         r="0.45"
         id="circle2546" /><circle
         style="fill:black;stroke:none"
         cx="-0.318"
         cy="9.475"
         r="0.45"
         id="circle2548" /><circle
         style="fill:black;stroke:none"
         cx="9.688"
         cy="6.186"
         r="0.45"
         id="circle2550" /><circle
         style="fill:black;stroke:none"
         cx="-0.312"
         cy="6.186"
         r="0.45"
         id="circle2552" /><circle
         style="fill:black;stroke:none"
         cx="3.379"
         cy="6.296"
         r="0.45"
         id="circle2554" /><circle
         style="fill:black;stroke:none"
         cx="2.871"
         cy="8.204"
         r="0.45"
         id="circle2556" /><circle
         style="fill:black;stroke:none"
         cx="4.59"
         cy="8.719"
         r="0.45"
         id="circle2558" /><circle
         style="fill:black;stroke:none"
         cx="3.181"
         cy="9.671"
         r="0.45"
         id="circle2560" /><circle
         style="fill:black;stroke:none"
         cx="3.181"
         cy="-0.329"
         r="0.45"
         id="circle2562" /><circle
         style="fill:black;stroke:none"
         cx="5.734"
         cy="7.315"
         r="0.45"
         id="circle2564" /><circle
         style="fill:black;stroke:none"
         cx="6.707"
         cy="6.513"
         r="0.45"
         id="circle2566" /><circle
         style="fill:black;stroke:none"
         cx="5.730"
         cy="9.670"
         r="0.45"
         id="circle2568" /><circle
         style="fill:black;stroke:none"
         cx="5.730"
         cy="-0.330"
         r="0.45"
         id="circle2570" /><circle
         style="fill:black;stroke:none"
         cx="6.535"
         cy="8.373"
         r="0.45"
         id="circle2572" /><circle
         style="fill:black;stroke:none"
         cx="4.37"
         cy="7.154"
         r="0.45"
         id="circle2574" /><circle
         style="fill:black;stroke:none"
         cx="0.622"
         cy="7.25"
         r="0.45"
         id="circle2576" /><circle
         style="fill:black;stroke:none"
         cx="0.831"
         cy="5.679"
         r="0.45"
         id="circle2578" /><circle
         style="fill:black;stroke:none"
         cx="1.257"
         cy="8.519"
         r="0.45"
         id="circle2580" /><circle
         style="fill:black;stroke:none"
         cx="1.989"
         cy="6.877"
         r="0.45"
         id="circle2582" /><circle
         style="fill:black;stroke:none"
         cx="0.374"
         cy="3.181"
         r="0.45"
         id="circle2584" /><circle
         style="fill:black;stroke:none"
         cx="10.374"
         cy="3.181"
         r="0.45"
         id="circle2586" /><circle
         style="fill:black;stroke:none"
         cx="1.166"
         cy="1.664"
         r="0.45"
         id="circle2588" /><circle
         style="fill:black;stroke:none"
         cx="1.151"
         cy="0.093"
         r="0.45"
         id="circle2590" /><circle
         style="fill:black;stroke:none"
         cx="1.151"
         cy="10.093"
         r="0.45"
         id="circle2592" /><circle
         style="fill:black;stroke:none"
         cx="1.302"
         cy="4.451"
         r="0.45"
         id="circle2594" /><circle
         style="fill:black;stroke:none"
         cx="3.047"
         cy="3.763"
         r="0.45"
         id="circle2596" /></pattern><pattern
       patternUnits="userSpaceOnUse"
       width="52.491415"
       height="46.958937"
       patternTransform="translate(29.320234,3.5000002)"
       id="pattern3134"><rect
         style="fill:url(#pattern3132);fill-opacity:1;stroke:none;stroke-width:10.8477"
         id="rect387"
         width="52.491413"
         height="46.958939"
         x="0"
         y="0" /></pattern></defs><path
     style="color:#000000;fill:#353535;fill-opacity:1;stroke-width:0.493078;stroke-dasharray:2.85983, 1.4299;stroke-dashoffset:1.4299;-inkscape-stroke:none"
     d="M 1.3731355,0.79375004 V 1.0583334 h 0.1630094 l -1e-7,-0.26458336 z m 0.3260188,0 V 1.0583334 h 0.325909 l -10e-8,-0.26458336 z m 0.4889182,0 10e-8,0.26458336 h 0.3260188 l -10e-8,-0.26458336 z m 0.4889184,0 1e-7,0.26458336 h 0.1832071 l -10e-8,-0.26458336 z"
     id="path940" /><path
     style="color:#000000;fill:#353535;fill-opacity:1;stroke-width:0.562081;stroke-dashoffset:1;-inkscape-stroke:none"
     d="m 1.3731356,3.2432129 -10e-8,0.1963704 H 2.860198 l 10e-8,-0.1963704 z"
     id="path937" /><path
     id="path1337"
     style="fill:#353535;fill-opacity:1;stroke-width:0.264583"
     d="M 2.087728,1.4552084 1.6867189,1.8520834 H 1.9843751 V 2.3812501 H 1.6867189 L 2.087728,2.7781251 H 2.145606 L 2.5466148,2.3812501 H 2.2489586 V 1.8520834 H 2.5466148 L 2.1456056,1.4552084 Z" /><rect
     style="stroke:none;fill:none"
     transform="scale(0.26458333)"
     width="52.491415"
     height="46.958937"
     x="29.320234"
     y="3.5000002"
     id="rect3137" /><path
     style="fill:#353535;fill-opacity:1;stroke:none;stroke-width:0.499999"
     id="path3247-3"
     d="M 3.3928985,0.81360062 A 0.15875,0.15875 0 0 1 3.393287,1.0380942 0.15875,0.15875 0 0 1 3.1687935,1.0385077 0.15875,0.15875 0 0 1 3.1683551,0.81401417 0.15875,0.15875 0 0 1 3.3928486,0.81355089" /><path
     style="fill:#353535;fill-opacity:1;stroke:none;stroke-width:0.499999"
     id="path3247-3-3-5"
     d="M 3.3928985,3.2289569 A 0.15875,0.15875 0 0 1 3.393287,3.4534505 0.15875,0.15875 0 0 1 3.1687935,3.453864 0.15875,0.15875 0 0 1 3.1683551,3.2293705 0.15875,0.15875 0 0 1 3.3928486,3.2289072" /><path
     style="fill:#353535;fill-opacity:1;stroke:none;stroke-width:0.499999"
     id="path3247-3-3"
     d="M 3.3928987,2.0212788 A 0.15875,0.15875 0 0 1 3.3932873,2.2457724 0.15875,0.15875 0 0 1 3.1687937,2.2461859 0.15875,0.15875 0 0 1 3.1683553,2.0216924 0.15875,0.15875 0 0 1 3.3928488,2.0212291" /><path
     style="fill:#353535;fill-opacity:1;stroke:none;stroke-width:0.499999"
     id="path3247-3-36"
     d="M 1.064565,0.81360062 A 0.15875,0.15875 0 0 1 1.0649535,1.0380942 0.15875,0.15875 0 0 1 0.84045996,1.0385077 0.15875,0.15875 0 0 1 0.84002159,0.81401417 0.15875,0.15875 0 0 1 1.0645151,0.81355089" /><path
     style="fill:#353535;fill-opacity:1;stroke:none;stroke-width:0.499999"
     id="path3247-3-3-5-0"
     d="M 1.064565,3.2289569 A 0.15875,0.15875 0 0 1 1.0649535,3.4534505 0.15875,0.15875 0 0 1 0.84045996,3.453864 0.15875,0.15875 0 0 1 0.84002159,3.2293705 0.15875,0.15875 0 0 1 1.0645151,3.2289072" /><path
     style="fill:#353535;fill-opacity:1;stroke:none;stroke-width:0.499999"
     id="path3247-3-3-6"
     d="M 1.064565,2.0042255 A 0.15875,0.15875 0 0 1 1.0649535,2.2287191 0.15875,0.15875 0 0 1 0.84045996,2.2291325 0.15875,0.15875 0 0 1 0.84002159,2.004639 0.15875,0.15875 0 0 1 1.0645151,2.0041757" /></svg>
